<svg xmlns="http://www.w3.org/2000/svg" width="512" height="512" viewBox="0 0 512 512"><rect width="512" height="512" rx="104" fill="#0f0f12"/><g transform="translate(81.92,81.92) scale(14.506666666666666)" fill="none" stroke="#f4b942" stroke-width="2.1" stroke-linecap="round" stroke-linejoin="round"><path d="M3.2 6.4 20.1 3.1a1.6 1.6 0 0 1 1.9 1.3l.5 2.6L4.6 10.6 3.2 6.4z"/><path d="M2.4 12h19.2v7.3a1.7 1.7 0 0 1-1.7 1.7H4.1a1.7 1.7 0 0 1-1.7-1.7V12z" opacity=".55"/><path d="m7.9 4.6 1.8 4.3-2.3.5-1.8-4.4zM13 3.6l1.8 4.3-2.3.5-1.8-4.4z"/><path d="M10.2 14.4 15.6 17l-5.4 2.6z"/></g></svg>
