<svg xmlns="http://www.w3.org/2000/svg" viewBox="0 0 960 290" width="960" height="290" role="img" aria-labelledby="t">
<title id="t">runtime/apk.js — imports, exports, dependants</title>
<style>
  text { font-family: 'Geist Mono', ui-monospace, 'Liberation Mono', Menlo, monospace; fill: #F2EEE6; }
  .m { fill: #A39E94; font-size: 11px; letter-spacing: .08em; }
  .l { font-size: 11.5px; }
  .h { font-size: 12px; fill: #5CE4DC; letter-spacing: .06em; }
  .flow { stroke-dasharray: 5 11; animation: flow 3s linear infinite; }
  @keyframes flow { to { stroke-dashoffset: -32; } }
  .breathe { animation: breathe 4.2s ease-in-out infinite; }
  @keyframes breathe { 50% { opacity: .38; } }
  .beat { animation: beat 2.6s ease-in-out infinite; transform-box: fill-box; transform-origin: center; }
  @keyframes beat { 50% { opacity: .55; transform: scale(1.35); } }
  .spin { transform-box: fill-box; transform-origin: center; animation: spin 48s linear infinite; }
  .spin-r { transform-box: fill-box; transform-origin: center; animation: spin 64s linear infinite reverse; }
  @keyframes spin { to { transform: rotate(360deg); } }
  @media (prefers-reduced-motion: reduce) { * { animation: none !important; } }
</style>
<defs>
  <filter id="bloom" x="-80%" y="-80%" width="260%" height="260%"><feGaussianBlur stdDeviation="4.5"/></filter>
  <filter id="soft" x="-30%" y="-30%" width="160%" height="160%"><feGaussianBlur stdDeviation="1.4"/></filter>
  <radialGradient id="key" cx="50%" cy="-10%" r="80%"><stop offset="0" stop-color="#F2B84B" stop-opacity=".09"/><stop offset="1" stop-color="#F2B84B" stop-opacity="0"/></radialGradient>
  <linearGradient id="pair" x1="0" x2="1"><stop offset="0" stop-color="#F2B84B"/><stop offset="1" stop-color="#5CE4DC"/></linearGradient>
</defs>
<rect width="960" height="290" rx="22" fill="#000"/>
<rect width="960" height="290" rx="22" fill="url(#key)"/>
<rect x=".5" y=".5" width="959" height="289" rx="21.5" fill="none" stroke="rgba(255,232,196,.14)"/>
<path d="M 24 1 H 936" stroke="rgba(255,238,208,.22)" stroke-width="1"/>
<g><circle cx="101.37" cy="120.94" r="1.78" fill="#F2B84B" opacity="0.36" class="breathe" style="animation-delay:-0.87s"/><circle cx="163.24" cy="31.89" r="1.34" fill="#F2B84B" opacity="0.52" class="breathe" style="animation-delay:-1.74s"/><circle cx="370.72" cy="59.84" r="1.59" fill="#5CE4DC" opacity="0.4" class="breathe" style="animation-delay:-2.08s"/><circle cx="397.27" cy="84.17" r="1.5" fill="#F2B84B" opacity="0.27" class="breathe" style="animation-delay:-2.07s"/><circle cx="848.85" cy="7.63" r="1.54" fill="#F2B84B" opacity="0.66" class="breathe" style="animation-delay:-1.34s"/><circle cx="43.96" cy="172.04" r="1.65" fill="#F2B84B" opacity="0.43" class="breathe" style="animation-delay:-1.25s"/><circle cx="29.62" cy="9.34" r="1.2" fill="#F2B84B" opacity="0.63" class="breathe" style="animation-delay:-3.5s"/><circle cx="821.7" cy="242.54" r="0.87" fill="#F2B84B" opacity="0.36" class="breathe" style="animation-delay:-2.27s"/><circle cx="195.3" cy="212.81" r="0.99" fill="#F2B84B" opacity="0.71" class="breathe" style="animation-delay:-3.83s"/><circle cx="832.07" cy="177.36" r="0.74" fill="#F2B84B" opacity="0.58" class="breathe" style="animation-delay:-0.38s"/><circle cx="450.81" cy="98.42" r="1.14" fill="#F2B84B" opacity="0.43" class="breathe" style="animation-delay:-0.56s"/><circle cx="854.71" cy="186.46" r="0.76" fill="#F2B84B" opacity="0.69" class="breathe" style="animation-delay:-3.49s"/><circle cx="651.04" cy="226.25" r="1.07" fill="#F2B84B" opacity="0.47" class="breathe" style="animation-delay:-3.83s"/><circle cx="508.17" cy="15.4" r="1.69" fill="#F2B84B" opacity="0.3" class="breathe" style="animation-delay:-2.94s"/><circle cx="549.41" cy="132.32" r="1.74" fill="#F2B84B" opacity="0.36" class="breathe" style="animation-delay:-1.79s"/><circle cx="418.23" cy="160.42" r="1.74" fill="#F2B84B" opacity="0.56" class="breathe" style="animation-delay:-3.23s"/><circle cx="368.35" cy="17.4" r="1.26" fill="#5CE4DC" opacity="0.47" class="breathe" style="animation-delay:-1.64s"/><circle cx="698.39" cy="143.81" r="1.75" fill="#5CE4DC" opacity="0.5" class="breathe" style="animation-delay:-0.21s"/><circle cx="720.61" cy="218.16" r="1.58" fill="#F2B84B" opacity="0.73" class="breathe" style="animation-delay:-1.8s"/><circle cx="676.84" cy="197.95" r="1.29" fill="#F2B84B" opacity="0.52" class="breathe" style="animation-delay:-1.16s"/><circle cx="635.31" cy="19.84" r="1.51" fill="#F2B84B" opacity="0.28" class="breathe" style="animation-delay:-2.77s"/><circle cx="777.22" cy="159.22" r="1.67" fill="#F2B84B" opacity="0.45" class="breathe" style="animation-delay:-0.83s"/></g>
<text x="40" y="42" class="m" text-anchor="start">RUNTIME MODULE MAP · DRAWN FROM THE IMPORT GRAPH</text><text x="920" y="42" class="h" text-anchor="end">runtime/apk.js</text><text x="40" y="78" class="m" text-anchor="start">IMPORTS · 2 RUNTIME MODULES</text><text x="430" y="78" class="m" text-anchor="start">EXPORTS · 10</text><text x="920" y="78" class="m" text-anchor="end">IMPORTED BY · 1 RUNTIME MODULES</text><path d="M 150 112 C 232.5 112, 217.5 164, 300 164" fill="none" stroke="#F2B84B" stroke-opacity="0.22" stroke-width="1"/><path d="M 150 112 C 232.5 112, 217.5 164, 300 164" fill="none" stroke="#F2B84B" stroke-opacity="0.55" stroke-width="1" class="flow"/><g><circle cx="150" cy="112" r="9" fill="#F2B84B" opacity="0.5" filter="url(#bloom)" class="breathe" style="animation-delay:-0.79s"/><circle cx="150" cy="112" r="3.2" fill="#F2B84B"/></g><text x="136" y="116" class="l" text-anchor="end" fill="#F2EEE6" fill-opacity=".82">feed</text><path d="M 150 138 C 232.5 138, 217.5 164, 300 164" fill="none" stroke="#F2B84B" stroke-opacity="0.22" stroke-width="1"/><path d="M 150 138 C 232.5 138, 217.5 164, 300 164" fill="none" stroke="#F2B84B" stroke-opacity="0.55" stroke-width="1" class="flow"/><g><circle cx="150" cy="138" r="9" fill="#F2B84B" opacity="0.5" filter="url(#bloom)" class="breathe" style="animation-delay:-3.94s"/><circle cx="150" cy="138" r="3.2" fill="#F2B84B"/></g><text x="136" y="142" class="l" text-anchor="end" fill="#F2EEE6" fill-opacity=".82">shell</text><path d="M 300 164 C 580.5 164, 529.5 112, 810 112" fill="none" stroke="#F2B84B" stroke-opacity="0.22" stroke-width="1"/><path d="M 300 164 C 580.5 164, 529.5 112, 810 112" fill="none" stroke="#F2B84B" stroke-opacity="0.55" stroke-width="1" class="flow"/><g><circle cx="810" cy="112" r="9" fill="#F2B84B" opacity="0.5" filter="url(#bloom)" class="breathe" style="animation-delay:-0.42s"/><circle cx="810" cy="112" r="3.2" fill="#F2B84B"/></g><text x="824" y="116" class="l" text-anchor="start" fill="#F2EEE6" fill-opacity=".82">render</text><circle cx="300" cy="164" r="26" fill="#5CE4DC" opacity=".35" filter="url(#bloom)" class="beat"/><g><circle cx="300" cy="164" r="15" fill="#5CE4DC" opacity="0.85" filter="url(#bloom)" class="beat" style="animation-delay:-0s"/><circle cx="300" cy="164" r="5" fill="#5CE4DC"/></g><text x="300" y="194" class="l" text-anchor="middle" fill="#5CE4DC" font-weight="700" font-size="13">apk</text><path d="M 300 164 C 365 164, 365 112, 430 112" fill="none" stroke="#5CE4DC" stroke-opacity="0.55" stroke-width="1.2"/><path d="M 300 164 C 365 164, 365 112, 430 112" fill="none" stroke="#5CE4DC" stroke-opacity="0.95" stroke-width="1.2" class="flow"/><g><circle cx="450" cy="112" r="9" fill="#F2B84B" opacity="0.5" filter="url(#bloom)" class="breathe" style="animation-delay:-1.67s"/><circle cx="450" cy="112" r="3.2" fill="#F2B84B"/></g><text x="462" y="116" class="l" text-anchor="start" fill="#F2EEE6" fill-opacity=".82">rasterizeIcon</text><g><circle cx="615" cy="112" r="9" fill="#F2B84B" opacity="0.5" filter="url(#bloom)" class="breathe" style="animation-delay:-0.87s"/><circle cx="615" cy="112" r="3.2" fill="#F2B84B"/></g><text x="627" y="116" class="l" text-anchor="start" fill="#F2EEE6" fill-opacity=".82">letterTilePng</text><g><circle cx="450" cy="138" r="9" fill="#F2B84B" opacity="0.5" filter="url(#bloom)" class="breathe" style="animation-delay:-0.83s"/><circle cx="450" cy="138" r="3.2" fill="#F2B84B"/></g><text x="462" y="142" class="l" text-anchor="start" fill="#F2EEE6" fill-opacity=".82">fetchAppIcons</text><g><circle cx="615" cy="138" r="9" fill="#F2B84B" opacity="0.5" filter="url(#bloom)" class="breathe" style="animation-delay:-3.63s"/><circle cx="615" cy="138" r="3.2" fill="#F2B84B"/></g><text x="627" y="142" class="l" text-anchor="start" fill="#F2EEE6" fill-opacity=".82">adaptiveFromTile</text><g><circle cx="450" cy="164" r="9" fill="#F2B84B" opacity="0.5" filter="url(#bloom)" class="breathe" style="animation-delay:-2.31s"/><circle cx="450" cy="164" r="3.2" fill="#F2B84B"/></g><text x="462" y="168" class="l" text-anchor="start" fill="#F2EEE6" fill-opacity=".82">fetchSiteIconPng</text><g><circle cx="615" cy="164" r="9" fill="#F2B84B" opacity="0.5" filter="url(#bloom)" class="breathe" style="animation-delay:-0.68s"/><circle cx="615" cy="164" r="3.2" fill="#F2B84B"/></g><text x="627" y="168" class="l" text-anchor="start" fill="#F2EEE6" fill-opacity=".82">buildApk</text><g><circle cx="450" cy="190" r="9" fill="#F2B84B" opacity="0.5" filter="url(#bloom)" class="breathe" style="animation-delay:-0.44s"/><circle cx="450" cy="190" r="3.2" fill="#F2B84B"/></g><text x="462" y="194" class="l" text-anchor="start" fill="#F2EEE6" fill-opacity=".82">downloadBlob</text><g><circle cx="615" cy="190" r="9" fill="#F2B84B" opacity="0.5" filter="url(#bloom)" class="breathe" style="animation-delay:-2.14s"/><circle cx="615" cy="190" r="3.2" fill="#F2B84B"/></g><text x="627" y="194" class="l" text-anchor="start" fill="#F2EEE6" fill-opacity=".82">shareFile</text><g><circle cx="450" cy="216" r="9" fill="#F2B84B" opacity="0.5" filter="url(#bloom)" class="breathe" style="animation-delay:-1.66s"/><circle cx="450" cy="216" r="3.2" fill="#F2B84B"/></g><text x="462" y="220" class="l" text-anchor="start" fill="#F2EEE6" fill-opacity=".82">downloadUrl</text><g><circle cx="615" cy="216" r="9" fill="#F2B84B" opacity="0.5" filter="url(#bloom)" class="breathe" style="animation-delay:-0.54s"/><circle cx="615" cy="216" r="3.2" fill="#F2B84B"/></g><text x="627" y="220" class="l" text-anchor="start" fill="#F2EEE6" fill-opacity=".82">apkFilename</text></svg>
