<svg xmlns="http://www.w3.org/2000/svg" viewBox="0 0 960 238" width="960" height="238" role="img" aria-labelledby="t">
<title id="t">runtime/urlquery.js — imports, exports, dependants</title>
<style>
  text { font-family: 'Geist Mono', ui-monospace, 'Liberation Mono', Menlo, monospace; fill: #F2EEE6; }
  .m { fill: #A39E94; font-size: 11px; letter-spacing: .08em; }
  .l { font-size: 11.5px; }
  .h { font-size: 12px; fill: #5CE4DC; letter-spacing: .06em; }
  .flow { stroke-dasharray: 5 11; animation: flow 3s linear infinite; }
  @keyframes flow { to { stroke-dashoffset: -32; } }
  .breathe { animation: breathe 4.2s ease-in-out infinite; }
  @keyframes breathe { 50% { opacity: .38; } }
  .beat { animation: beat 2.6s ease-in-out infinite; transform-box: fill-box; transform-origin: center; }
  @keyframes beat { 50% { opacity: .55; transform: scale(1.35); } }
  .spin { transform-box: fill-box; transform-origin: center; animation: spin 48s linear infinite; }
  .spin-r { transform-box: fill-box; transform-origin: center; animation: spin 64s linear infinite reverse; }
  @keyframes spin { to { transform: rotate(360deg); } }
  @media (prefers-reduced-motion: reduce) { * { animation: none !important; } }
</style>
<defs>
  <filter id="bloom" x="-80%" y="-80%" width="260%" height="260%"><feGaussianBlur stdDeviation="4.5"/></filter>
  <filter id="soft" x="-30%" y="-30%" width="160%" height="160%"><feGaussianBlur stdDeviation="1.4"/></filter>
  <radialGradient id="key" cx="50%" cy="-10%" r="80%"><stop offset="0" stop-color="#F2B84B" stop-opacity=".09"/><stop offset="1" stop-color="#F2B84B" stop-opacity="0"/></radialGradient>
  <linearGradient id="pair" x1="0" x2="1"><stop offset="0" stop-color="#F2B84B"/><stop offset="1" stop-color="#5CE4DC"/></linearGradient>
</defs>
<rect width="960" height="238" rx="22" fill="#000"/>
<rect width="960" height="238" rx="22" fill="url(#key)"/>
<rect x=".5" y=".5" width="959" height="237" rx="21.5" fill="none" stroke="rgba(255,232,196,.14)"/>
<path d="M 24 1 H 936" stroke="rgba(255,238,208,.22)" stroke-width="1"/>
<g><circle cx="146.84" cy="129.41" r="1.45" fill="#F2B84B" opacity="0.57" class="breathe" style="animation-delay:-1.39s"/><circle cx="369.49" cy="193.45" r="1.48" fill="#F2B84B" opacity="0.72" class="breathe" style="animation-delay:-3.23s"/><circle cx="932.97" cy="231.98" r="1.25" fill="#5CE4DC" opacity="0.35" class="breathe" style="animation-delay:-0.06s"/><circle cx="489.4" cy="69.03" r="0.75" fill="#F2B84B" opacity="0.72" class="breathe" style="animation-delay:-0.24s"/><circle cx="715.1" cy="214.08" r="1.25" fill="#F2B84B" opacity="0.55" class="breathe" style="animation-delay:-0.66s"/><circle cx="681.83" cy="182.09" r="1.55" fill="#F2B84B" opacity="0.49" class="breathe" style="animation-delay:-2.13s"/><circle cx="678.09" cy="199.22" r="1.11" fill="#F2B84B" opacity="0.35" class="breathe" style="animation-delay:-1.9s"/><circle cx="624.25" cy="15.5" r="1.17" fill="#F2B84B" opacity="0.32" class="breathe" style="animation-delay:-1.83s"/><circle cx="752.14" cy="147.9" r="1.63" fill="#F2B84B" opacity="0.27" class="breathe" style="animation-delay:-3.03s"/><circle cx="111.65" cy="161.41" r="1.37" fill="#F2B84B" opacity="0.75" class="breathe" style="animation-delay:-1.37s"/><circle cx="132.51" cy="158.9" r="1.51" fill="#5CE4DC" opacity="0.74" class="breathe" style="animation-delay:-2.11s"/><circle cx="291.59" cy="103.63" r="0.79" fill="#5CE4DC" opacity="0.42" class="breathe" style="animation-delay:-0.45s"/><circle cx="767.56" cy="72.64" r="0.75" fill="#F2B84B" opacity="0.51" class="breathe" style="animation-delay:-2.18s"/><circle cx="374.19" cy="21.37" r="1.04" fill="#F2B84B" opacity="0.3" class="breathe" style="animation-delay:-2.38s"/><circle cx="398.24" cy="45.36" r="0.78" fill="#F2B84B" opacity="0.31" class="breathe" style="animation-delay:-0.27s"/><circle cx="827.68" cy="143.03" r="1.47" fill="#F2B84B" opacity="0.43" class="breathe" style="animation-delay:-0.59s"/><circle cx="560.88" cy="155.49" r="0.85" fill="#F2B84B" opacity="0.67" class="breathe" style="animation-delay:-2.34s"/><circle cx="62.44" cy="145.15" r="1.57" fill="#F2B84B" opacity="0.32" class="breathe" style="animation-delay:-2.1s"/><circle cx="692.23" cy="125.44" r="1.35" fill="#5CE4DC" opacity="0.54" class="breathe" style="animation-delay:-3.91s"/><circle cx="842.45" cy="48.94" r="0.8" fill="#F2B84B" opacity="0.67" class="breathe" style="animation-delay:-3.11s"/><circle cx="780.28" cy="87.27" r="1.24" fill="#F2B84B" opacity="0.69" class="breathe" style="animation-delay:-0.95s"/><circle cx="839.14" cy="11.74" r="1.76" fill="#F2B84B" opacity="0.59" class="breathe" style="animation-delay:-0.16s"/></g>
<text x="40" y="42" class="m" text-anchor="start">RUNTIME MODULE MAP · DRAWN FROM THE IMPORT GRAPH</text><text x="920" y="42" class="h" text-anchor="end">runtime/urlquery.js</text><text x="40" y="78" class="m" text-anchor="start">IMPORTS · 0 RUNTIME MODULES</text><text x="430" y="78" class="m" text-anchor="start">EXPORTS · 2</text><text x="920" y="78" class="m" text-anchor="end">IMPORTED BY · 1 RUNTIME MODULES</text><path d="M 300 138 C 580.5 138, 529.5 112, 810 112" fill="none" stroke="#F2B84B" stroke-opacity="0.22" stroke-width="1"/><path d="M 300 138 C 580.5 138, 529.5 112, 810 112" fill="none" stroke="#F2B84B" stroke-opacity="0.55" stroke-width="1" class="flow"/><g><circle cx="810" cy="112" r="9" fill="#F2B84B" opacity="0.5" filter="url(#bloom)" class="breathe" style="animation-delay:-2.7s"/><circle cx="810" cy="112" r="3.2" fill="#F2B84B"/></g><text x="824" y="116" class="l" text-anchor="start" fill="#F2EEE6" fill-opacity=".82">sitelabel</text><circle cx="300" cy="138" r="26" fill="#5CE4DC" opacity=".35" filter="url(#bloom)" class="beat"/><g><circle cx="300" cy="138" r="15" fill="#5CE4DC" opacity="0.85" filter="url(#bloom)" class="beat" style="animation-delay:-0s"/><circle cx="300" cy="138" r="5" fill="#5CE4DC"/></g><text x="300" y="168" class="l" text-anchor="middle" fill="#5CE4DC" font-weight="700" font-size="13">urlquery</text><path d="M 300 138 C 365 138, 365 112, 430 112" fill="none" stroke="#5CE4DC" stroke-opacity="0.55" stroke-width="1.2"/><path d="M 300 138 C 365 138, 365 112, 430 112" fill="none" stroke="#5CE4DC" stroke-opacity="0.95" stroke-width="1.2" class="flow"/><g><circle cx="450" cy="112" r="9" fill="#F2B84B" opacity="0.5" filter="url(#bloom)" class="breathe" style="animation-delay:-2.73s"/><circle cx="450" cy="112" r="3.2" fill="#F2B84B"/></g><text x="462" y="116" class="l" text-anchor="start" fill="#F2EEE6" fill-opacity=".82">resolveSearch</text><g><circle cx="615" cy="112" r="9" fill="#F2B84B" opacity="0.5" filter="url(#bloom)" class="breathe" style="animation-delay:-0.61s"/><circle cx="615" cy="112" r="3.2" fill="#F2B84B"/></g><text x="627" y="116" class="l" text-anchor="start" fill="#F2EEE6" fill-opacity=".82">buildSearchUrl</text></svg>
