<svg xmlns="http://www.w3.org/2000/svg" viewBox="0 0 960 238" width="960" height="238" role="img" aria-labelledby="t">
<title id="t">runtime/material.js — imports, exports, dependants</title>
<style>
  text { font-family: 'Geist Mono', ui-monospace, 'Liberation Mono', Menlo, monospace; fill: #F2EEE6; }
  .m { fill: #A39E94; font-size: 11px; letter-spacing: .08em; }
  .l { font-size: 11.5px; }
  .h { font-size: 12px; fill: #5CE4DC; letter-spacing: .06em; }
  .flow { stroke-dasharray: 5 11; animation: flow 3s linear infinite; }
  @keyframes flow { to { stroke-dashoffset: -32; } }
  .breathe { animation: breathe 4.2s ease-in-out infinite; }
  @keyframes breathe { 50% { opacity: .38; } }
  .beat { animation: beat 2.6s ease-in-out infinite; transform-box: fill-box; transform-origin: center; }
  @keyframes beat { 50% { opacity: .55; transform: scale(1.35); } }
  .spin { transform-box: fill-box; transform-origin: center; animation: spin 48s linear infinite; }
  .spin-r { transform-box: fill-box; transform-origin: center; animation: spin 64s linear infinite reverse; }
  @keyframes spin { to { transform: rotate(360deg); } }
  @media (prefers-reduced-motion: reduce) { * { animation: none !important; } }
</style>
<defs>
  <filter id="bloom" x="-80%" y="-80%" width="260%" height="260%"><feGaussianBlur stdDeviation="4.5"/></filter>
  <filter id="soft" x="-30%" y="-30%" width="160%" height="160%"><feGaussianBlur stdDeviation="1.4"/></filter>
  <radialGradient id="key" cx="50%" cy="-10%" r="80%"><stop offset="0" stop-color="#F2B84B" stop-opacity=".09"/><stop offset="1" stop-color="#F2B84B" stop-opacity="0"/></radialGradient>
  <linearGradient id="pair" x1="0" x2="1"><stop offset="0" stop-color="#F2B84B"/><stop offset="1" stop-color="#5CE4DC"/></linearGradient>
</defs>
<rect width="960" height="238" rx="22" fill="#000"/>
<rect width="960" height="238" rx="22" fill="url(#key)"/>
<rect x=".5" y=".5" width="959" height="237" rx="21.5" fill="none" stroke="rgba(255,232,196,.14)"/>
<path d="M 24 1 H 936" stroke="rgba(255,238,208,.22)" stroke-width="1"/>
<g><circle cx="826.53" cy="137.04" r="1.71" fill="#F2B84B" opacity="0.56" class="breathe" style="animation-delay:-2.15s"/><circle cx="859.54" cy="89.8" r="1.21" fill="#5CE4DC" opacity="0.68" class="breathe" style="animation-delay:-0.76s"/><circle cx="246.44" cy="137.34" r="1.12" fill="#F2B84B" opacity="0.31" class="breathe" style="animation-delay:-1.47s"/><circle cx="836.26" cy="36.29" r="0.9" fill="#F2B84B" opacity="0.26" class="breathe" style="animation-delay:-0.83s"/><circle cx="10.43" cy="198.65" r="1.62" fill="#F2B84B" opacity="0.44" class="breathe" style="animation-delay:-2.41s"/><circle cx="506.57" cy="26.21" r="1.2" fill="#5CE4DC" opacity="0.31" class="breathe" style="animation-delay:-0.35s"/><circle cx="35.47" cy="148.17" r="1.49" fill="#F2B84B" opacity="0.52" class="breathe" style="animation-delay:-3.85s"/><circle cx="776.13" cy="188.4" r="0.98" fill="#F2B84B" opacity="0.65" class="breathe" style="animation-delay:-2.31s"/><circle cx="811.83" cy="107.44" r="1.27" fill="#F2B84B" opacity="0.73" class="breathe" style="animation-delay:-4.02s"/><circle cx="359.89" cy="92.82" r="1.11" fill="#F2B84B" opacity="0.74" class="breathe" style="animation-delay:-3.9s"/><circle cx="197.11" cy="236.64" r="1.14" fill="#F2B84B" opacity="0.48" class="breathe" style="animation-delay:-2.26s"/><circle cx="505.47" cy="167.01" r="1.49" fill="#F2B84B" opacity="0.4" class="breathe" style="animation-delay:-2.9s"/><circle cx="674.49" cy="159.21" r="1.62" fill="#F2B84B" opacity="0.51" class="breathe" style="animation-delay:-0.95s"/><circle cx="643.27" cy="171.17" r="0.95" fill="#F2B84B" opacity="0.44" class="breathe" style="animation-delay:-2.05s"/><circle cx="424.33" cy="198.18" r="1.73" fill="#F2B84B" opacity="0.69" class="breathe" style="animation-delay:-1.23s"/><circle cx="573.02" cy="8.38" r="1.54" fill="#F2B84B" opacity="0.45" class="breathe" style="animation-delay:-2.1s"/><circle cx="20.77" cy="1.45" r="1.34" fill="#F2B84B" opacity="0.35" class="breathe" style="animation-delay:-0.1s"/><circle cx="306.41" cy="111.55" r="1.29" fill="#F2B84B" opacity="0.47" class="breathe" style="animation-delay:-0.63s"/><circle cx="126.01" cy="68.22" r="1.54" fill="#F2B84B" opacity="0.51" class="breathe" style="animation-delay:-1.16s"/><circle cx="145.91" cy="225.65" r="1.15" fill="#F2B84B" opacity="0.61" class="breathe" style="animation-delay:-0.36s"/><circle cx="344.79" cy="163.28" r="1.64" fill="#F2B84B" opacity="0.36" class="breathe" style="animation-delay:-0.5s"/><circle cx="473.47" cy="99.87" r="1.55" fill="#F2B84B" opacity="0.29" class="breathe" style="animation-delay:-1.25s"/></g>
<text x="40" y="42" class="m" text-anchor="start">RUNTIME MODULE MAP · DRAWN FROM THE IMPORT GRAPH</text><text x="920" y="42" class="h" text-anchor="end">runtime/material.js</text><text x="40" y="78" class="m" text-anchor="start">IMPORTS · 0 RUNTIME MODULES</text><text x="430" y="78" class="m" text-anchor="start">EXPORTS · 4</text><text x="920" y="78" class="m" text-anchor="end">IMPORTED BY · 1 RUNTIME MODULES</text><path d="M 300 138 C 580.5 138, 529.5 112, 810 112" fill="none" stroke="#F2B84B" stroke-opacity="0.22" stroke-width="1"/><path d="M 300 138 C 580.5 138, 529.5 112, 810 112" fill="none" stroke="#F2B84B" stroke-opacity="0.55" stroke-width="1" class="flow"/><g><circle cx="810" cy="112" r="9" fill="#F2B84B" opacity="0.5" filter="url(#bloom)" class="breathe" style="animation-delay:-2.17s"/><circle cx="810" cy="112" r="3.2" fill="#F2B84B"/></g><text x="824" y="116" class="l" text-anchor="start" fill="#F2EEE6" fill-opacity=".82">index</text><circle cx="300" cy="138" r="26" fill="#5CE4DC" opacity=".35" filter="url(#bloom)" class="beat"/><g><circle cx="300" cy="138" r="15" fill="#5CE4DC" opacity="0.85" filter="url(#bloom)" class="beat" style="animation-delay:-0s"/><circle cx="300" cy="138" r="5" fill="#5CE4DC"/></g><text x="300" y="168" class="l" text-anchor="middle" fill="#5CE4DC" font-weight="700" font-size="13">material</text><path d="M 300 138 C 365 138, 365 112, 430 112" fill="none" stroke="#5CE4DC" stroke-opacity="0.55" stroke-width="1.2"/><path d="M 300 138 C 365 138, 365 112, 430 112" fill="none" stroke="#5CE4DC" stroke-opacity="0.95" stroke-width="1.2" class="flow"/><g><circle cx="450" cy="112" r="9" fill="#F2B84B" opacity="0.5" filter="url(#bloom)" class="breathe" style="animation-delay:-3.68s"/><circle cx="450" cy="112" r="3.2" fill="#F2B84B"/></g><text x="462" y="116" class="l" text-anchor="start" fill="#F2EEE6" fill-opacity=".82">MATERIAL_KEY</text><g><circle cx="615" cy="112" r="9" fill="#F2B84B" opacity="0.5" filter="url(#bloom)" class="breathe" style="animation-delay:-3.44s"/><circle cx="615" cy="112" r="3.2" fill="#F2B84B"/></g><text x="627" y="116" class="l" text-anchor="start" fill="#F2EEE6" fill-opacity=".82">loadMaterials</text><g><circle cx="450" cy="138" r="9" fill="#F2B84B" opacity="0.5" filter="url(#bloom)" class="breathe" style="animation-delay:-2.3s"/><circle cx="450" cy="138" r="3.2" fill="#F2B84B"/></g><text x="462" y="142" class="l" text-anchor="start" fill="#F2EEE6" fill-opacity=".82">materialHref</text><g><circle cx="615" cy="138" r="9" fill="#F2B84B" opacity="0.5" filter="url(#bloom)" class="breathe" style="animation-delay:-2.49s"/><circle cx="615" cy="138" r="3.2" fill="#F2B84B"/></g><text x="627" y="142" class="l" text-anchor="start" fill="#F2EEE6" fill-opacity=".82">applyMaterial</text></svg>
