<svg xmlns="http://www.w3.org/2000/svg" viewBox="0 0 960 420" width="960" height="420" role="img" aria-labelledby="t">
<title id="t">8n8 pipeline — sw (gate, script)</title>
<style>
  text { font-family: 'Geist Mono', ui-monospace, 'Liberation Mono', Menlo, monospace; fill: #F2EEE6; }
  .m { fill: #A39E94; font-size: 11px; letter-spacing: .08em; }
  .l { font-size: 11.5px; }
  .h { font-size: 12px; fill: #5CE4DC; letter-spacing: .06em; }
  .flow { stroke-dasharray: 5 11; animation: flow 3s linear infinite; }
  @keyframes flow { to { stroke-dashoffset: -32; } }
  .breathe { animation: breathe 4.2s ease-in-out infinite; }
  @keyframes breathe { 50% { opacity: .38; } }
  .beat { animation: beat 2.6s ease-in-out infinite; transform-box: fill-box; transform-origin: center; }
  @keyframes beat { 50% { opacity: .55; transform: scale(1.35); } }
  .spin { transform-box: fill-box; transform-origin: center; animation: spin 48s linear infinite; }
  .spin-r { transform-box: fill-box; transform-origin: center; animation: spin 64s linear infinite reverse; }
  @keyframes spin { to { transform: rotate(360deg); } }
  @media (prefers-reduced-motion: reduce) { * { animation: none !important; } }
</style>
<defs>
  <filter id="bloom" x="-80%" y="-80%" width="260%" height="260%"><feGaussianBlur stdDeviation="4.5"/></filter>
  <filter id="soft" x="-30%" y="-30%" width="160%" height="160%"><feGaussianBlur stdDeviation="1.4"/></filter>
  <radialGradient id="key" cx="50%" cy="-10%" r="80%"><stop offset="0" stop-color="#F2B84B" stop-opacity=".09"/><stop offset="1" stop-color="#F2B84B" stop-opacity="0"/></radialGradient>
  <linearGradient id="pair" x1="0" x2="1"><stop offset="0" stop-color="#F2B84B"/><stop offset="1" stop-color="#5CE4DC"/></linearGradient>
</defs>
<rect width="960" height="420" rx="22" fill="#000"/>
<rect width="960" height="420" rx="22" fill="url(#key)"/>
<rect x=".5" y=".5" width="959" height="419" rx="21.5" fill="none" stroke="rgba(255,232,196,.14)"/>
<path d="M 24 1 H 936" stroke="rgba(255,238,208,.22)" stroke-width="1"/>
<g><circle cx="699.94" cy="113.14" r="0.71" fill="#F2B84B" opacity="0.48" class="breathe" style="animation-delay:-2.9s"/><circle cx="947.17" cy="360.16" r="1.04" fill="#5CE4DC" opacity="0.25" class="breathe" style="animation-delay:-2.26s"/><circle cx="23.06" cy="99.61" r="1.29" fill="#5CE4DC" opacity="0.66" class="breathe" style="animation-delay:-1.52s"/><circle cx="15.76" cy="174.27" r="1.58" fill="#F2B84B" opacity="0.26" class="breathe" style="animation-delay:-1.68s"/><circle cx="198.15" cy="13.58" r="0.97" fill="#F2B84B" opacity="0.47" class="breathe" style="animation-delay:-3.41s"/><circle cx="387.54" cy="231.57" r="1.18" fill="#F2B84B" opacity="0.63" class="breathe" style="animation-delay:-3.35s"/><circle cx="329.19" cy="418.7" r="1.37" fill="#5CE4DC" opacity="0.49" class="breathe" style="animation-delay:-3.64s"/><circle cx="553.17" cy="406.41" r="1.23" fill="#F2B84B" opacity="0.32" class="breathe" style="animation-delay:-2s"/><circle cx="925.05" cy="247.77" r="0.73" fill="#5CE4DC" opacity="0.62" class="breathe" style="animation-delay:-4.09s"/><circle cx="108.65" cy="134.5" r="1.01" fill="#F2B84B" opacity="0.49" class="breathe" style="animation-delay:-1.14s"/><circle cx="96.2" cy="314.14" r="1.28" fill="#F2B84B" opacity="0.69" class="breathe" style="animation-delay:-1.5s"/><circle cx="945.81" cy="211.16" r="1.26" fill="#F2B84B" opacity="0.68" class="breathe" style="animation-delay:-2.82s"/><circle cx="82.93" cy="126.88" r="0.86" fill="#F2B84B" opacity="0.62" class="breathe" style="animation-delay:-0.34s"/><circle cx="712.39" cy="61.57" r="0.74" fill="#F2B84B" opacity="0.59" class="breathe" style="animation-delay:-1.81s"/><circle cx="832.76" cy="302.94" r="1.66" fill="#F2B84B" opacity="0.47" class="breathe" style="animation-delay:-4s"/><circle cx="852.8" cy="27.06" r="1.12" fill="#F2B84B" opacity="0.33" class="breathe" style="animation-delay:-2.46s"/><circle cx="887.88" cy="215.55" r="1.37" fill="#F2B84B" opacity="0.6" class="breathe" style="animation-delay:-1.46s"/><circle cx="423.86" cy="72.32" r="0.81" fill="#5CE4DC" opacity="0.66" class="breathe" style="animation-delay:-3.16s"/><circle cx="193.41" cy="209.2" r="1.51" fill="#F2B84B" opacity="0.61" class="breathe" style="animation-delay:-1.65s"/><circle cx="235.74" cy="339.74" r="1.3" fill="#F2B84B" opacity="0.63" class="breathe" style="animation-delay:-0.86s"/><circle cx="203.15" cy="25.52" r="1.69" fill="#F2B84B" opacity="0.43" class="breathe" style="animation-delay:-0.32s"/><circle cx="241.97" cy="229.88" r="1.69" fill="#5CE4DC" opacity="0.72" class="breathe" style="animation-delay:-0.07s"/><circle cx="837.52" cy="190.81" r="1.54" fill="#F2B84B" opacity="0.39" class="breathe" style="animation-delay:-2.54s"/><circle cx="552.96" cy="195.02" r="0.85" fill="#5CE4DC" opacity="0.67" class="breathe" style="animation-delay:-3.27s"/><circle cx="341.3" cy="338.02" r="1.3" fill="#F2B84B" opacity="0.55" class="breathe" style="animation-delay:-3.57s"/><circle cx="226.32" cy="149.42" r="0.81" fill="#F2B84B" opacity="0.27" class="breathe" style="animation-delay:-3.79s"/></g>
<text x="40" y="42" class="m" text-anchor="start">8N8 · THE FARM'S PIPELINE REGISTRY</text><text x="920" y="42" class="h" text-anchor="end">sw · gate · script</text><text x="60" y="70" class="m" text-anchor="start">AUTHOR · THE GENERATIVE HALF</text><text x="320" y="70" class="m" text-anchor="start">GATE · EVERY NODE NAMES ITS FAILURE</text><text x="740" y="70" class="m" text-anchor="start">SHIP</text><path d="M 110 96 C 162.5 96, 162.5 96, 215 96" fill="none" stroke="#F2B84B" stroke-opacity="0.22" stroke-width="1"/><path d="M 110 96 C 162.5 96, 162.5 96, 215 96" fill="none" stroke="#F2B84B" stroke-opacity="0.55" stroke-width="1" class="flow"/><path d="M 215 96 C 162.5 96, 162.5 164, 110 164" fill="none" stroke="#F2B84B" stroke-opacity="0.22" stroke-width="1"/><path d="M 215 96 C 162.5 96, 162.5 164, 110 164" fill="none" stroke="#F2B84B" stroke-opacity="0.55" stroke-width="1" class="flow"/><path d="M 110 164 C 162.5 164, 162.5 164, 215 164" fill="none" stroke="#F2B84B" stroke-opacity="0.22" stroke-width="1"/><path d="M 110 164 C 162.5 164, 162.5 164, 215 164" fill="none" stroke="#F2B84B" stroke-opacity="0.55" stroke-width="1" class="flow"/><path d="M 110 164 C 110 164, 110 232, 110 232" fill="none" stroke="#F2B84B" stroke-opacity="0.22" stroke-width="1"/><path d="M 110 164 C 110 164, 110 232, 110 232" fill="none" stroke="#F2B84B" stroke-opacity="0.55" stroke-width="1" class="flow"/><path d="M 110 96 C 162.5 96, 162.5 232, 215 232" fill="none" stroke="#F2B84B" stroke-opacity="0.22" stroke-width="1"/><path d="M 110 96 C 162.5 96, 162.5 232, 215 232" fill="none" stroke="#F2B84B" stroke-opacity="0.55" stroke-width="1" class="flow"/><path d="M 110 232 C 110 232, 110 300, 110 300" fill="none" stroke="#F2B84B" stroke-opacity="0.22" stroke-width="1"/><path d="M 110 232 C 110 232, 110 300, 110 300" fill="none" stroke="#F2B84B" stroke-opacity="0.55" stroke-width="1" class="flow"/><path d="M 215 164 C 162.5 164, 162.5 300, 110 300" fill="none" stroke="#F2B84B" stroke-opacity="0.22" stroke-width="1"/><path d="M 215 164 C 162.5 164, 162.5 300, 110 300" fill="none" stroke="#F2B84B" stroke-opacity="0.55" stroke-width="1" class="flow"/><path d="M 110 164 C 230 164, 230 164, 350 164" fill="none" stroke="#F2B84B" stroke-opacity="0.22" stroke-width="1"/><path d="M 110 164 C 230 164, 230 164, 350 164" fill="none" stroke="#F2B84B" stroke-opacity="0.55" stroke-width="1" class="flow"/><path d="M 215 300 C 282.5 300, 282.5 164, 350 164" fill="none" stroke="#F2B84B" stroke-opacity="0.22" stroke-width="1"/><path d="M 215 300 C 282.5 300, 282.5 164, 350 164" fill="none" stroke="#F2B84B" stroke-opacity="0.55" stroke-width="1" class="flow"/><path d="M 110 300 C 277.5 300, 277.5 164, 445 164" fill="none" stroke="#F2B84B" stroke-opacity="0.22" stroke-width="1"/><path d="M 110 300 C 277.5 300, 277.5 164, 445 164" fill="none" stroke="#F2B84B" stroke-opacity="0.55" stroke-width="1" class="flow"/><path d="M 215 300 C 330 300, 330 164, 445 164" fill="none" stroke="#F2B84B" stroke-opacity="0.22" stroke-width="1"/><path d="M 215 300 C 330 300, 330 164, 445 164" fill="none" stroke="#F2B84B" stroke-opacity="0.55" stroke-width="1" class="flow"/><path d="M 110 300 C 325 300, 325 164, 540 164" fill="none" stroke="#F2B84B" stroke-opacity="0.22" stroke-width="1"/><path d="M 110 300 C 325 300, 325 164, 540 164" fill="none" stroke="#F2B84B" stroke-opacity="0.55" stroke-width="1" class="flow"/><path d="M 215 300 C 377.5 300, 377.5 164, 540 164" fill="none" stroke="#F2B84B" stroke-opacity="0.22" stroke-width="1"/><path d="M 215 300 C 377.5 300, 377.5 164, 540 164" fill="none" stroke="#F2B84B" stroke-opacity="0.55" stroke-width="1" class="flow"/><path d="M 445 96 C 492.5 96, 492.5 164, 540 164" fill="none" stroke="#F2B84B" stroke-opacity="0.22" stroke-width="1"/><path d="M 445 96 C 492.5 96, 492.5 164, 540 164" fill="none" stroke="#F2B84B" stroke-opacity="0.55" stroke-width="1" class="flow"/><path d="M 110 164 C 372.5 164, 372.5 164, 635 164" fill="none" stroke="#F2B84B" stroke-opacity="0.22" stroke-width="1"/><path d="M 110 164 C 372.5 164, 372.5 164, 635 164" fill="none" stroke="#F2B84B" stroke-opacity="0.55" stroke-width="1" class="flow"/><path d="M 110 232 C 372.5 232, 372.5 164, 635 164" fill="none" stroke="#F2B84B" stroke-opacity="0.22" stroke-width="1"/><path d="M 110 232 C 372.5 232, 372.5 164, 635 164" fill="none" stroke="#F2B84B" stroke-opacity="0.55" stroke-width="1" class="flow"/><path d="M 215 300 C 425 300, 425 164, 635 164" fill="none" stroke="#F2B84B" stroke-opacity="0.22" stroke-width="1"/><path d="M 215 300 C 425 300, 425 164, 635 164" fill="none" stroke="#F2B84B" stroke-opacity="0.55" stroke-width="1" class="flow"/><path d="M 215 300 C 330 300, 330 232, 445 232" fill="none" stroke="#F2B84B" stroke-opacity="0.22" stroke-width="1"/><path d="M 215 300 C 330 300, 330 232, 445 232" fill="none" stroke="#F2B84B" stroke-opacity="0.55" stroke-width="1" class="flow"/><path d="M 445 96 C 445 96, 445 232, 445 232" fill="none" stroke="#F2B84B" stroke-opacity="0.22" stroke-width="1"/><path d="M 445 96 C 445 96, 445 232, 445 232" fill="none" stroke="#F2B84B" stroke-opacity="0.55" stroke-width="1" class="flow"/><path d="M 445 96 C 492.5 96, 492.5 232, 540 232" fill="none" stroke="#F2B84B" stroke-opacity="0.22" stroke-width="1"/><path d="M 445 96 C 492.5 96, 492.5 232, 540 232" fill="none" stroke="#F2B84B" stroke-opacity="0.55" stroke-width="1" class="flow"/><path d="M 445 96 C 540 96, 540 232, 635 232" fill="none" stroke="#F2B84B" stroke-opacity="0.22" stroke-width="1"/><path d="M 445 96 C 540 96, 540 232, 635 232" fill="none" stroke="#F2B84B" stroke-opacity="0.55" stroke-width="1" class="flow"/><path d="M 110 300 C 230 300, 230 300, 350 300" fill="none" stroke="#F2B84B" stroke-opacity="0.22" stroke-width="1"/><path d="M 110 300 C 230 300, 230 300, 350 300" fill="none" stroke="#F2B84B" stroke-opacity="0.55" stroke-width="1" class="flow"/><path d="M 110 300 C 325 300, 325 300, 540 300" fill="none" stroke="#5CE4DC" stroke-opacity="0.55" stroke-width="1.4"/><path d="M 110 300 C 325 300, 325 300, 540 300" fill="none" stroke="#5CE4DC" stroke-opacity="0.95" stroke-width="1.4" class="flow"/><path d="M 215 300 C 377.5 300, 377.5 300, 540 300" fill="none" stroke="#5CE4DC" stroke-opacity="0.55" stroke-width="1.4"/><path d="M 215 300 C 377.5 300, 377.5 300, 540 300" fill="none" stroke="#5CE4DC" stroke-opacity="0.95" stroke-width="1.4" class="flow"/><path d="M 110 300 C 372.5 300, 372.5 300, 635 300" fill="none" stroke="#F2B84B" stroke-opacity="0.22" stroke-width="1"/><path d="M 110 300 C 372.5 300, 372.5 300, 635 300" fill="none" stroke="#F2B84B" stroke-opacity="0.55" stroke-width="1" class="flow"/><path d="M 215 300 C 425 300, 425 300, 635 300" fill="none" stroke="#F2B84B" stroke-opacity="0.22" stroke-width="1"/><path d="M 215 300 C 425 300, 425 300, 635 300" fill="none" stroke="#F2B84B" stroke-opacity="0.55" stroke-width="1" class="flow"/><path d="M 215 300 C 282.5 300, 282.5 368, 350 368" fill="none" stroke="#F2B84B" stroke-opacity="0.22" stroke-width="1"/><path d="M 215 300 C 282.5 300, 282.5 368, 350 368" fill="none" stroke="#F2B84B" stroke-opacity="0.55" stroke-width="1" class="flow"/><path d="M 110 300 C 450 300, 450 96, 790 96" fill="none" stroke="#F2B84B" stroke-opacity="0.22" stroke-width="1"/><path d="M 110 300 C 450 300, 450 96, 790 96" fill="none" stroke="#F2B84B" stroke-opacity="0.55" stroke-width="1" class="flow"/><path d="M 350 164 C 570 164, 570 164, 790 164" fill="none" stroke="#F2B84B" stroke-opacity="0.22" stroke-width="1"/><path d="M 350 164 C 570 164, 570 164, 790 164" fill="none" stroke="#F2B84B" stroke-opacity="0.55" stroke-width="1" class="flow"/><path d="M 540 164 C 665 164, 665 164, 790 164" fill="none" stroke="#F2B84B" stroke-opacity="0.22" stroke-width="1"/><path d="M 540 164 C 665 164, 665 164, 790 164" fill="none" stroke="#F2B84B" stroke-opacity="0.55" stroke-width="1" class="flow"/><path d="M 445 232 C 617.5 232, 617.5 164, 790 164" fill="none" stroke="#F2B84B" stroke-opacity="0.22" stroke-width="1"/><path d="M 445 232 C 617.5 232, 617.5 164, 790 164" fill="none" stroke="#F2B84B" stroke-opacity="0.55" stroke-width="1" class="flow"/><path d="M 540 300 C 665 300, 665 164, 790 164" fill="none" stroke="#5CE4DC" stroke-opacity="0.55" stroke-width="1.4"/><path d="M 540 300 C 665 300, 665 164, 790 164" fill="none" stroke="#5CE4DC" stroke-opacity="0.95" stroke-width="1.4" class="flow"/><path d="M 350 368 C 570 368, 570 164, 790 164" fill="none" stroke="#F2B84B" stroke-opacity="0.22" stroke-width="1"/><path d="M 350 368 C 570 368, 570 164, 790 164" fill="none" stroke="#F2B84B" stroke-opacity="0.55" stroke-width="1" class="flow"/><path d="M 790 164 C 837.5 164, 837.5 164, 885 164" fill="none" stroke="#F2B84B" stroke-opacity="0.22" stroke-width="1"/><path d="M 790 164 C 837.5 164, 837.5 164, 885 164" fill="none" stroke="#F2B84B" stroke-opacity="0.55" stroke-width="1" class="flow"/><path d="M 885 164 C 837.5 164, 837.5 232, 790 232" fill="none" stroke="#F2B84B" stroke-opacity="0.22" stroke-width="1"/><path d="M 885 164 C 837.5 164, 837.5 232, 790 232" fill="none" stroke="#F2B84B" stroke-opacity="0.55" stroke-width="1" class="flow"/><path d="M 790 232 C 837.5 232, 837.5 232, 885 232" fill="none" stroke="#F2B84B" stroke-opacity="0.22" stroke-width="1"/><path d="M 790 232 C 837.5 232, 837.5 232, 885 232" fill="none" stroke="#F2B84B" stroke-opacity="0.55" stroke-width="1" class="flow"/><g><circle cx="110" cy="96" r="9" fill="#F2B84B" opacity="0.5" filter="url(#bloom)" class="breathe" style="animation-delay:-2.41s"/><circle cx="110" cy="96" r="3.8" fill="none" stroke="#F2B84B" stroke-width="1.3"/></g><text x="110" y="114" class="l" text-anchor="middle" fill="#F2EEE6" fill-opacity=".82">ideate</text><g><circle cx="215" cy="96" r="9" fill="#F2B84B" opacity="0.5" filter="url(#bloom)" class="breathe" style="animation-delay:-0.03s"/><circle cx="215" cy="96" r="3.8" fill="none" stroke="#F2B84B" stroke-width="1.3"/></g><text x="215" y="114" class="l" text-anchor="middle" fill="#F2EEE6" fill-opacity=".82">research</text><g><circle cx="110" cy="164" r="9" fill="#F2B84B" opacity="0.5" filter="url(#bloom)" class="breathe" style="animation-delay:-2.92s"/><circle cx="110" cy="164" r="3.8" fill="none" stroke="#F2B84B" stroke-width="1.3"/></g><text x="110" y="182" class="l" text-anchor="middle" fill="#F2EEE6" fill-opacity=".82">spec</text><g><circle cx="215" cy="164" r="9" fill="#F2B84B" opacity="0.5" filter="url(#bloom)" class="breathe" style="animation-delay:-1.08s"/><circle cx="215" cy="164" r="3.8" fill="none" stroke="#F2B84B" stroke-width="1.3"/></g><text x="215" y="182" class="l" text-anchor="middle" fill="#F2EEE6" fill-opacity=".82">i18n</text><g><circle cx="110" cy="232" r="9" fill="#F2B84B" opacity="0.5" filter="url(#bloom)" class="breathe" style="animation-delay:-1.85s"/><circle cx="110" cy="232" r="3.8" fill="none" stroke="#F2B84B" stroke-width="1.3"/></g><text x="110" y="250" class="l" text-anchor="middle" fill="#F2EEE6" fill-opacity=".82">view</text><g><circle cx="215" cy="232" r="9" fill="#F2B84B" opacity="0.5" filter="url(#bloom)" class="breathe" style="animation-delay:-2.76s"/><circle cx="215" cy="232" r="3.2" fill="#F2B84B"/></g><text x="215" y="250" class="l" text-anchor="middle" fill="#F2EEE6" fill-opacity=".82">authorless</text><g><circle cx="110" cy="300" r="9" fill="#F2B84B" opacity="0.5" filter="url(#bloom)" class="breathe" style="animation-delay:-0.53s"/><circle cx="110" cy="300" r="3.2" fill="#F2B84B"/></g><text x="110" y="318" class="l" text-anchor="middle" fill="#F2EEE6" fill-opacity=".82">scaffold</text><g><circle cx="215" cy="300" r="9" fill="#F2B84B" opacity="0.5" filter="url(#bloom)" class="breathe" style="animation-delay:-1.25s"/><circle cx="215" cy="300" r="3.2" fill="#F2B84B"/></g><text x="215" y="318" class="l" text-anchor="middle" fill="#F2EEE6" fill-opacity=".82">demo</text><g><circle cx="350" cy="96" r="9" fill="#F2B84B" opacity="0.5" filter="url(#bloom)" class="breathe" style="animation-delay:-3.95s"/><circle cx="350" cy="96" r="3.2" fill="#F2B84B"/></g><text x="350" y="114" class="l" text-anchor="middle" fill="#F2EEE6" fill-opacity=".82">realmlint</text><g><circle cx="445" cy="96" r="9" fill="#F2B84B" opacity="0.5" filter="url(#bloom)" class="breathe" style="animation-delay:-3.43s"/><circle cx="445" cy="96" r="3.2" fill="#F2B84B"/></g><text x="445" y="114" class="l" text-anchor="middle" fill="#F2EEE6" fill-opacity=".82">rtmap</text><g><circle cx="540" cy="96" r="9" fill="#F2B84B" opacity="0.5" filter="url(#bloom)" class="breathe" style="animation-delay:-0.02s"/><circle cx="540" cy="96" r="3.2" fill="#F2B84B"/></g><text x="540" y="114" class="l" text-anchor="middle" fill="#F2EEE6" fill-opacity=".82">dts</text><g><circle cx="635" cy="96" r="9" fill="#F2B84B" opacity="0.5" filter="url(#bloom)" class="breathe" style="animation-delay:-2.15s"/><circle cx="635" cy="96" r="3.2" fill="#F2B84B"/></g><text x="635" y="114" class="l" text-anchor="middle" fill="#F2EEE6" fill-opacity=".82">docart</text><g><circle cx="350" cy="164" r="9" fill="#F2B84B" opacity="0.5" filter="url(#bloom)" class="breathe" style="animation-delay:-0.45s"/><circle cx="350" cy="164" r="3.2" fill="#F2B84B"/></g><text x="350" y="182" class="l" text-anchor="middle" fill="#F2EEE6" fill-opacity=".82">validate</text><g><circle cx="445" cy="164" r="9" fill="#F2B84B" opacity="0.5" filter="url(#bloom)" class="breathe" style="animation-delay:-2.14s"/><circle cx="445" cy="164" r="3.2" fill="#F2B84B"/></g><text x="445" y="182" class="l" text-anchor="middle" fill="#F2EEE6" fill-opacity=".82">noundef</text><g><circle cx="540" cy="164" r="9" fill="#F2B84B" opacity="0.5" filter="url(#bloom)" class="breathe" style="animation-delay:-0.1s"/><circle cx="540" cy="164" r="3.2" fill="#F2B84B"/></g><text x="540" y="182" class="l" text-anchor="middle" fill="#F2EEE6" fill-opacity=".82">preflight</text><g><circle cx="635" cy="164" r="9" fill="#F2B84B" opacity="0.5" filter="url(#bloom)" class="breathe" style="animation-delay:-0.95s"/><circle cx="635" cy="164" r="3.2" fill="#F2B84B"/></g><text x="635" y="182" class="l" text-anchor="middle" fill="#F2EEE6" fill-opacity=".82">caps</text><g><circle cx="350" cy="232" r="9" fill="#F2B84B" opacity="0.5" filter="url(#bloom)" class="breathe" style="animation-delay:-3.24s"/><circle cx="350" cy="232" r="3.2" fill="#F2B84B"/></g><text x="350" y="250" class="l" text-anchor="middle" fill="#F2EEE6" fill-opacity=".82">relimports</text><g><circle cx="445" cy="232" r="9" fill="#F2B84B" opacity="0.5" filter="url(#bloom)" class="breathe" style="animation-delay:-1.45s"/><circle cx="445" cy="232" r="3.2" fill="#F2B84B"/></g><text x="445" y="250" class="l" text-anchor="middle" fill="#F2EEE6" fill-opacity=".82">unit</text><g><circle cx="540" cy="232" r="9" fill="#F2B84B" opacity="0.5" filter="url(#bloom)" class="breathe" style="animation-delay:-2.42s"/><circle cx="540" cy="232" r="3.2" fill="#F2B84B"/></g><text x="540" y="250" class="l" text-anchor="middle" fill="#F2EEE6" fill-opacity=".82">mcp</text><g><circle cx="635" cy="232" r="9" fill="#F2B84B" opacity="0.5" filter="url(#bloom)" class="breathe" style="animation-delay:-3.21s"/><circle cx="635" cy="232" r="3.2" fill="#F2B84B"/></g><text x="635" y="250" class="l" text-anchor="middle" fill="#F2EEE6" fill-opacity=".82">pipeline</text><g><circle cx="350" cy="300" r="9" fill="#F2B84B" opacity="0.5" filter="url(#bloom)" class="breathe" style="animation-delay:-0.07s"/><circle cx="350" cy="300" r="3.2" fill="#F2B84B"/></g><text x="350" y="318" class="l" text-anchor="middle" fill="#F2EEE6" fill-opacity=".82">kit</text><g><circle cx="445" cy="300" r="9" fill="#F2B84B" opacity="0.5" filter="url(#bloom)" class="breathe" style="animation-delay:-1.66s"/><circle cx="445" cy="300" r="3.2" fill="#F2B84B"/></g><text x="445" y="318" class="l" text-anchor="middle" fill="#F2EEE6" fill-opacity=".82">shell</text><g><circle cx="540" cy="300" r="15" fill="#5CE4DC" opacity="0.85" filter="url(#bloom)" class="beat" style="animation-delay:-0.08s"/><circle cx="540" cy="300" r="5" fill="#5CE4DC"/></g><text x="540" y="318" class="l" text-anchor="middle" fill="#5CE4DC" font-weight="700">sw</text><g><circle cx="635" cy="300" r="9" fill="#F2B84B" opacity="0.5" filter="url(#bloom)" class="breathe" style="animation-delay:-1.6s"/><circle cx="635" cy="300" r="3.2" fill="#F2B84B"/></g><text x="635" y="318" class="l" text-anchor="middle" fill="#F2EEE6" fill-opacity=".82">readme</text><g><circle cx="350" cy="368" r="9" fill="#F2B84B" opacity="0.5" filter="url(#bloom)" class="breathe" style="animation-delay:-3.44s"/><circle cx="350" cy="368" r="3.2" fill="#F2B84B"/></g><text x="350" y="386" class="l" text-anchor="middle" fill="#F2EEE6" fill-opacity=".82">counts</text><g><circle cx="790" cy="96" r="9" fill="#F2B84B" opacity="0.5" filter="url(#bloom)" class="breathe" style="animation-delay:-0.97s"/><circle cx="790" cy="96" r="3.2" fill="#F2B84B"/></g><text x="790" y="114" class="l" text-anchor="middle" fill="#F2EEE6" fill-opacity=".82">manifest</text><g><circle cx="885" cy="96" r="9" fill="#F2B84B" opacity="0.5" filter="url(#bloom)" class="breathe" style="animation-delay:-0.83s"/><circle cx="885" cy="96" r="3.2" fill="#F2B84B"/></g><text x="885" y="114" class="l" text-anchor="middle" fill="#F2EEE6" fill-opacity=".82">affected</text><g><circle cx="790" cy="164" r="9" fill="#F2B84B" opacity="0.5" filter="url(#bloom)" class="breathe" style="animation-delay:-0.13s"/><circle cx="790" cy="164" r="3.2" fill="#F2B84B"/></g><text x="790" y="182" class="l" text-anchor="middle" fill="#F2EEE6" fill-opacity=".82">push</text><g><circle cx="885" cy="164" r="9" fill="#F2B84B" opacity="0.5" filter="url(#bloom)" class="breathe" style="animation-delay:-1.77s"/><circle cx="885" cy="164" r="3.2" fill="#F2B84B"/></g><text x="885" y="182" class="l" text-anchor="middle" fill="#F2EEE6" fill-opacity=".82">ci</text><g><circle cx="790" cy="232" r="9" fill="#F2B84B" opacity="0.5" filter="url(#bloom)" class="breathe" style="animation-delay:-3.24s"/><circle cx="790" cy="232" r="3.2" fill="#F2B84B"/></g><text x="790" y="250" class="l" text-anchor="middle" fill="#F2EEE6" fill-opacity=".82">shot</text><g><circle cx="885" cy="232" r="9" fill="#F2B84B" opacity="0.5" filter="url(#bloom)" class="breathe" style="animation-delay:-3.17s"/><circle cx="885" cy="232" r="3.8" fill="none" stroke="#F2B84B" stroke-width="1.3"/></g><text x="885" y="250" class="l" text-anchor="middle" fill="#F2EEE6" fill-opacity=".82">taste</text><text x="40" y="396" class="m" text-anchor="start">● SCRIPT NODE  ·  ○ AGENT NODE  ·  FILAMENT = NEEDS  ·  THE LIT NODE IS THIS PAGE</text></svg>
