<svg xmlns="http://www.w3.org/2000/svg" width="512" height="512" viewBox="0 0 512 512"><rect width="512" height="512" rx="104" fill="#1a1a1a"/><g transform="translate(81.92,81.92) scale(14.506666666666666)" fill="none" stroke="#FFD21E" stroke-width="2.1" stroke-linecap="round" stroke-linejoin="round"><path d="M13 2c.35 4.2 2.95 6.8 7.15 7.15C15.95 9.5 13.35 12.1 13 16.3c-.35-4.2-2.95-6.8-7.15-7.15C10.05 8.8 12.65 6.2 13 2z"/><path d="M6.5 14.5c.2 2.4 1.7 3.9 4.1 4.1-2.4.2-3.9 1.7-4.1 4.1-.2-2.4-1.7-3.9-4.1-4.1 2.4-.2 3.9-1.7 4.1-4.1z"/></g></svg>
